<?xml version="1.0" standalone="no"?>
<!DOCTYPE svg PUBLIC "-//W3C//DTD SVG 20010904//EN"
 "http://www.w3.org/TR/2001/REC-SVG-20010904/DTD/svg10.dtd">
<svg version="1.0" xmlns="http://www.w3.org/2000/svg"
 width="514.000000pt" height="514.000000pt" viewBox="0 0 514.000000 514.000000"
 preserveAspectRatio="xMidYMid meet">
<metadata>
Created by potrace 1.14, written by Peter Selinger 2001-2017
</metadata>
<g transform="translate(0.000000,514.000000) scale(0.100000,-0.100000)"
fill="#000000" stroke="none">
<path d="M2518 5085 c-2 -1 -55 -5 -119 -8 -63 -4 -122 -8 -130 -11 -8 -3 -42
-7 -75 -10 -52 -5 -200 -35 -254 -50 -8 -3 -46 -14 -85 -26 -38 -11 -90 -27
-115 -34 -25 -8 -63 -22 -85 -32 -22 -10 -43 -17 -46 -16 -11 2 -321 -157
-374 -192 -145 -96 -193 -129 -221 -154 -17 -15 -51 -43 -75 -62 -81 -65 -132
-115 -218 -215 -184 -214 -241 -294 -336 -470 -26 -49 -56 -102 -67 -117 -11
-16 -17 -28 -14 -28 4 0 -4 -17 -17 -37 -13 -21 -30 -56 -37 -78 -7 -22 -21
-59 -31 -82 -16 -36 -41 -117 -54 -175 -2 -9 -8 -25 -13 -35 -12 -22 -50 -176
-63 -253 -10 -59 -15 -90 -28 -189 -9 -72 -8 -485 2 -516 3 -11 8 -40 11 -65
9 -77 44 -242 77 -354 17 -59 32 -117 34 -128 2 -11 8 -25 13 -32 5 -6 19 -38
32 -71 39 -102 139 -304 196 -396 154 -248 378 -507 554 -638 47 -35 87 -68
88 -72 2 -5 10 -9 17 -9 7 0 15 -4 17 -9 4 -11 189 -127 196 -123 2 2 8 0 11
-6 13 -19 281 -142 406 -185 175 -61 213 -72 330 -95 212 -43 334 -57 510 -57
163 0 439 28 459 46 6 5 23 9 39 9 16 0 55 7 86 14 31 8 67 17 81 20 14 2 56
16 93 29 37 14 70 26 72 26 3 1 6 1 8 2 1 0 9 2 17 4 53 11 326 131 400 176 8
5 51 30 95 56 44 26 82 49 85 52 3 3 32 24 65 46 33 22 67 47 75 56 9 8 25 22
37 30 106 75 413 392 413 427 0 6 4 12 9 12 5 0 13 9 16 20 3 11 12 26 19 32
19 20 79 109 102 153 96 181 149 287 173 348 40 100 92 253 96 280 2 12 10 45
19 72 9 28 21 77 26 110 6 33 13 71 16 85 2 14 7 45 9 69 3 24 7 47 10 51 6 9
17 157 19 260 3 106 -13 310 -29 380 -3 14 -8 43 -11 65 -15 127 -160 596
-193 625 -3 3 -31 54 -61 115 -30 60 -59 114 -63 120 -14 18 -103 159 -116
183 -7 13 -21 33 -31 45 -10 12 -48 60 -85 107 -153 197 -395 406 -630 545
-27 16 -59 35 -70 42 -79 48 -351 169 -402 179 -18 4 -33 10 -33 14 0 3 -6 7
-12 7 -15 1 -247 59 -293 73 -16 5 -61 12 -99 15 -38 3 -72 8 -76 10 -11 7
-365 26 -372 20z"/>
</g>
</svg>
