<?xml version="1.0" standalone="no"?>
<!DOCTYPE svg PUBLIC "-//W3C//DTD SVG 20010904//EN"
 "http://www.w3.org/TR/2001/REC-SVG-20010904/DTD/svg10.dtd">
<svg version="1.0" xmlns="http://www.w3.org/2000/svg"
 width="512.000000pt" height="512.000000pt" viewBox="0 0 512.000000 512.000000"
 preserveAspectRatio="xMidYMid meet">
<metadata>
Created by potrace 1.14, written by Peter Selinger 2001-2017
</metadata>
<g transform="translate(0.000000,512.000000) scale(0.100000,-0.100000)"
fill="#000000" stroke="none">
<path d="M2385 5064 c-256 -25 -417 -58 -615 -123 -391 -130 -702 -322 -991
-610 -397 -398 -640 -891 -715 -1451 -20 -151 -23 -461 -5 -605 115 -933 704
-1706 1561 -2050 306 -123 600 -178 945 -178 293 0 536 40 795 128 381 131
688 322 971 604 392 393 630 870 716 1438 20 135 23 518 5 648 -57 407 -191
766 -407 1090 -178 268 -446 533 -716 708 -308 201 -675 335 -1054 387 -83 12
-420 21 -490 14z"/>
</g>
</svg>
